<?xml version="1.0"?>
<svg xmlns="http://www.w3.org/2000/svg" viewBox="0 0 64 64" width="512" height="512"><g id="outline"><path d="M50,29H43a1,1,0,0,0-.97,1.242l3,12A1,1,0,0,0,46,43h7a1,1,0,0,0,.97-1.242l-3-12A1,1,0,0,0,50,29ZM46.781,41l-2.5-10h4.938l2.5,10Z"/><path d="M59.935,18.341a3.347,3.347,0,0,0-2.591.912l-.374-1.5A1,1,0,0,0,56,17H53V14a1,1,0,0,0-1-1H46a1,1,0,0,0-1,1v3H5a1,1,0,0,0-.895.553l-2,4A1,1,0,0,0,2,22v4a1,1,0,0,0,1,1H4v3a1,1,0,0,0,1,1H29.82l-.8,4.821a5.5,5.5,0,0,0,1.3,4.649,4.514,4.514,0,0,0,3.419,1.537c.133,0,.268,0,.4-.016l6.078-.825L42.02,50.2A1,1,0,0,0,43,51H58a1,1,0,0,0,.98-1.2L55.22,31H59a1,1,0,0,0,.97-1.242l-.885-3.539,2.7-3.594a2.562,2.562,0,0,0,.051-3.18A2.524,2.524,0,0,0,59.935,18.341ZM47,15h4v2H47ZM34,19H55.219l1.5,6H34Zm-5.618,0-1,2H20.618l-1-2ZM6,29V27H19.219l.5,2Zm10-4V23.236l.895-1.789-1.79-.894-1,2A1,1,0,0,0,14,23v2H12V23.236l.895-1.789-1.79-.894-1,2A1,1,0,0,0,10,23v2H8V23.236L8.9,21.447l-1.79-.894-1,2A1,1,0,0,0,6,23v2H4V22.236L5.618,19H17.382l1.723,3.447A1,1,0,0,0,20,23h8a1,1,0,0,0,.895-.553L30.618,19H32v6ZM33.921,40a2.542,2.542,0,0,1-2.126-.874,3.545,3.545,0,0,1-.809-2.965L31.847,31h2.314a8.2,8.2,0,0,1-.993,5.445A1,1,0,0,0,34,38a9.2,9.2,0,0,0,5.222-1.791l.6,2.991Zm2.255-9h2l.57,2.852a5.491,5.491,0,0,1-3.025,1.881A11.158,11.158,0,0,0,36.176,31Zm20.6,18H43.82l-.4-2H56.38ZM54,29a1,1,0,0,0-.98,1.2L55.98,45H43.02L39.98,29.8A1,1,0,0,0,39,29H21.781l-.5-2H57.219l.5,2Zm6.2-7.6-1.739,2.32-.554-2.213.8-.8a1.323,1.323,0,0,1,1.03-.376.552.552,0,0,1,.431.224C60.489,21.037,60.327,21.241,60.2,21.4Z"/><rect x="36" y="21" width="2" height="2"/><rect x="40" y="21" width="2" height="2"/><rect x="52" y="21" width="2" height="2"/></g></svg>
