<svg id="Capa_1" enable-background="new 0 0 512 512" height="512" viewBox="0 0 512 512" width="512" xmlns="http://www.w3.org/2000/svg"><g><path d="m345 0h-230c-3.979 0-7.794 1.581-10.606 4.394l-100 100c-2.814 2.813-4.394 6.628-4.394 10.606v352c0 24.813 20.187 45 45 45h300c24.813 0 45-20.187 45-45v-422c0-24.813-20.187-45-45-45zm-245 51.213v48.787h-48.787zm260 415.787c0 8.271-6.729 15-15 15h-300c-8.271 0-15-6.729-15-15v-337h85c8.284 0 15-6.716 15-15v-85h215c8.271 0 15 6.729 15 15z"/><path d="m175 90h140c8.284 0 15-6.716 15-15s-6.716-15-15-15h-140c-8.284 0-15 6.716-15 15s6.716 15 15 15z"/><path d="m175 150h140c8.284 0 15-6.716 15-15s-6.716-15-15-15h-140c-8.284 0-15 6.716-15 15s6.716 15 15 15z"/><path d="m307.64 406.93-19.283 10.859-19.325-10.864c-4.564-2.566-10.137-2.566-14.701 0l-26.681 15c-7.222 4.06-9.784 13.205-5.725 20.426 2.753 4.897 7.845 7.652 13.089 7.651 2.489 0 5.014-.621 7.337-1.927l19.33-10.867 19.331 10.867c4.567 2.568 10.144 2.566 14.711-.005l26.638-15c7.218-4.065 9.774-13.212 5.71-20.43-4.065-7.218-13.213-9.775-20.431-5.71z"/><path d="m75 210h240c8.284 0 15-6.716 15-15s-6.716-15-15-15h-240c-8.284 0-15 6.716-15 15s6.716 15 15 15z"/><path d="m272.977 309.464c0-18.555-7.227-35.999-20.347-49.118-23.781-23.781-60.655-26.683-87.63-8.702-26.976-17.981-63.85-15.08-87.631 8.702-27.084 27.084-27.084 71.153 0 98.237l77.024 77.024c2.929 2.929 6.768 4.393 10.607 4.393s7.678-1.464 10.606-4.394l77.024-77.024c13.121-13.12 20.347-30.563 20.347-49.118zm-136.32 65.98-38.075-38.074c-7.454-7.454-11.559-17.364-11.559-27.905 0-10.542 4.105-20.452 11.56-27.906 7.693-7.693 17.8-11.54 27.905-11.54 6.066 0 12.129 1.397 17.674 4.169l-11.639 17.44c-3.363 5.04-3.364 11.607-.004 16.648l24.454 36.676zm94.761-38.074-66.418 66.417-6.708-6.708 29.192-43.812c3.356-5.039 3.355-11.601-.003-16.639l-24.449-36.669 11.829-17.726c.251-.22.506-.435.746-.675 15.388-15.387 40.424-15.386 55.812 0 15.386 15.388 15.386 40.424-.001 55.812z"/><path d="m467 42c-24.813 0-45 20.187-45 45v330c0 1.799.323 3.583.955 5.267l30 80c2.195 5.855 7.792 9.733 14.045 9.733s11.85-3.878 14.045-9.733l30-80c.632-1.684.955-3.468.955-5.267v-330c0-24.813-20.187-45-45-45zm0 412.28-8.355-22.28h16.71zm15-52.28h-30v-230h30zm0-260h-30v-55c0-8.271 6.729-15 15-15s15 6.729 15 15z"/></g></svg>