<svg id="Capa_1" enable-background="new 0 0 512 512" height="512" viewBox="0 0 512 512" width="512" xmlns="http://www.w3.org/2000/svg"><g><g><path d="m393.958 46.062h-5.883l-7.034 1.03c-13.215 4.825-22.507 17.594-22.507 32.123v55.991l1.03 2.866h66.889c1.707 0 3.091-1.384 3.091-3.091v-53.333c0-19.654-15.932-35.586-35.586-35.586z" fill="#c4e2ff"/></g><path d="m337.395 340.407c-25.72 0-49.921-11.307-66.398-31.021-30.578-36.587-25.689-91.229 10.897-121.807 15.528-12.978 35.206-20.125 55.409-20.125 7.608 0 15.08.997 22.262 2.901v-91.14c0-16.734 12.399-30.564 28.51-32.823v-.33h-298.76c-19.654 0-35.586 15.932-35.586 35.586v384.291h270.25c19.654 0 35.586-15.932 35.586-35.586v-92.856c-7.193 1.915-14.644 2.91-22.17 2.91z" fill="#fff3de"/><path d="m96.785 412.806v-331.158c0-19.654 15.932-35.586 35.586-35.586h-43.056c-19.654 0-35.586 15.932-35.586 35.586v331.158z" fill="#ffe5c2"/><g><g><g><path d="m244.668 180.345h-135.215c-4.142 0-7.5-3.358-7.5-7.5s3.358-7.5 7.5-7.5h135.215c4.142 0 7.5 3.358 7.5 7.5s-3.358 7.5-7.5 7.5z" fill="#478cb1"/></g></g><g><g><path d="m216.853 220.303h-107.4c-4.142 0-7.5-3.358-7.5-7.5s3.358-7.5 7.5-7.5h107.4c4.142 0 7.5 3.358 7.5 7.5s-3.358 7.5-7.5 7.5z" fill="#83c4e8"/></g></g><g><g><path d="m216.853 260.26h-107.4c-4.142 0-7.5-3.358-7.5-7.5s3.358-7.5 7.5-7.5h107.4c4.142 0 7.5 3.358 7.5 7.5s-3.358 7.5-7.5 7.5z" fill="#83c4e8"/></g></g><g><g><path d="m216.853 300.218h-107.4c-4.142 0-7.5-3.358-7.5-7.5s3.358-7.5 7.5-7.5h107.4c4.142 0 7.5 3.358 7.5 7.5s-3.358 7.5-7.5 7.5z" fill="#83c4e8"/></g></g><g><g><path d="m244.668 340.175h-72.113c-4.142 0-7.5-3.358-7.5-7.5s3.358-7.5 7.5-7.5h72.113c4.142 0 7.5 3.358 7.5 7.5s-3.358 7.5-7.5 7.5z" fill="#478cb1"/></g></g><g><g><path d="m146.801 340.175h-37.348c-4.142 0-7.5-3.358-7.5-7.5s3.358-7.5 7.5-7.5h37.348c4.142 0 7.5 3.358 7.5 7.5s-3.358 7.5-7.5 7.5z" fill="#478cb1"/></g></g><g><g><path d="m299.953 380.132h-190.5c-4.142 0-7.5-3.358-7.5-7.5s3.358-7.5 7.5-7.5h190.5c4.142 0 7.5 3.358 7.5 7.5s-3.358 7.5-7.5 7.5z" fill="#478cb1"/></g></g><g><g><path d="m299.953 140.292h-103.703c-4.142 0-7.5-3.358-7.5-7.5s3.358-7.5 7.5-7.5h103.703c4.142 0 7.5 3.358 7.5 7.5s-3.358 7.5-7.5 7.5z" fill="#478cb1"/></g></g></g><g><path d="m435.276 349.882-32.724-39.154c-2.951 3.384-6.196 6.586-9.748 9.555-3.514 2.937-7.249 5.558-11.146 7.882l32.737 39.17z" fill="#83c4e8"/><g><path d="m509.676 438.228-21.544 18.006c-2.746 2.295-6.832 1.929-9.127-.817l-66.399-79.447c-2.295-2.746-1.929-6.832.817-9.127l21.544-18.006c2.746-2.295 6.832-1.929 9.127.817l66.399 79.447c2.294 2.745 1.928 6.832-.817 9.127z" fill="#478cb1"/></g><g><path d="m433.724 375.971c-2.295-2.746-1.929-6.832.817-9.127l14.082-11.77-4.53-5.42c-2.295-2.746-6.381-3.111-9.127-.817l-21.544 18.006c-2.746 2.295-3.111 6.381-.817 9.127l66.399 79.447c2.295 2.746 6.381 3.111 9.127.817l7.462-6.236z" fill="#266c8f"/></g><g><circle cx="337.349" cy="253.93" fill="#fd4755" r="87.474"/></g><g><circle cx="337.349" cy="253.93" fill="#eaf6ff" r="58.711"/></g><g><path d="m324.263 291.581c-20.794-24.88-17.481-61.906 7.398-82.699 6.553-5.477 13.952-9.264 21.671-11.443-18.03-5.084-38.175-1.477-53.634 11.443-24.88 20.794-28.192 57.819-7.399 82.699 15.317 18.327 39.439 24.934 61.028 18.841-10.987-3.098-21.19-9.42-29.064-18.841z" fill="#d8ecfe"/></g></g><g><path d="m283.805 430.352v-14.456c0-1.707-1.384-3.091-3.091-3.091h-277.623c-1.707 0-3.091 1.384-3.091 3.091v14.456c0 19.653 15.932 35.586 35.586 35.586h283.806c-19.654 0-35.587-15.932-35.587-35.586z" fill="#c4e2ff"/></g><g><path d="m42.753 430.352v-14.456c0-1.707 1.384-3.091 3.091-3.091h-42.753c-1.707 0-3.091 1.384-3.091 3.091v14.456c0 19.654 15.932 35.586 35.586 35.586h42.753c-19.654 0-35.586-15.932-35.586-35.586z" fill="#b3dafe"/></g><g><g><circle cx="109.453" cy="132.792" fill="#478cb1" r="7.5"/></g><g><circle cx="136.453" cy="132.792" fill="#478cb1" r="7.5"/></g><g><circle cx="163.453" cy="132.792" fill="#478cb1" r="7.5"/></g></g><g><path d="m337.403 320.112c-18.956 0-37.78-8.074-50.858-23.722-23.412-28.014-19.669-69.852 8.344-93.264 13.57-11.341 30.74-16.719 48.359-15.144 17.615 1.576 33.563 9.917 44.904 23.487 23.413 28.014 19.669 69.852-8.344 93.264-12.364 10.335-27.426 15.379-42.405 15.379zm-.143-117.397c-11.971 0-23.454 4.151-32.751 11.921-21.667 18.108-24.562 50.468-6.454 72.135s50.467 24.563 72.135 6.453c21.667-18.108 24.562-50.468 6.453-72.135-8.772-10.496-21.106-16.947-34.731-18.167-1.556-.138-3.109-.207-4.652-.207z" fill="#e41f2d"/></g></g></svg>