<svg id="Icons" height="512" viewBox="0 0 74 74" width="512" xmlns="http://www.w3.org/2000/svg"><path d="m57 33.9a1 1 0 0 1 -1-1v-2.9a1 1 0 0 1 2 0v2.9a1 1 0 0 1 -1 1z"/><path d="m54 72h-34a4 4 0 0 1 -4-4v-62a4 4 0 0 1 4-4h34a4 4 0 0 1 4 4v17a1 1 0 0 1 -2 0v-17a2 2 0 0 0 -2-2h-34a2 2 0 0 0 -2 2v62a2 2 0 0 0 2 2h34a2 2 0 0 0 2-2v-18.12a1 1 0 1 1 2 0v18.12a4 4 0 0 1 -4 4z"/><path d="m57 43.88a1 1 0 0 1 -1-1v-2.98a1 1 0 0 1 2 0v2.98a1 1 0 0 1 -1 1z"/><path d="m57 14.9h-40a1 1 0 0 1 0-2h40a1 1 0 0 1 0 2z"/><path d="m57 59.146h-40a1 1 0 0 1 0-2h40a1 1 0 0 1 0 2z"/><path d="m37 68.2a3.625 3.625 0 1 1 3.625-3.625 3.629 3.629 0 0 1 -3.625 3.625zm0-5.25a1.625 1.625 0 1 0 1.625 1.625 1.627 1.627 0 0 0 -1.625-1.627z"/><path d="m42.7 9.448h-11.4a1 1 0 0 1 0-2h11.4a1 1 0 0 1 0 2z"/><path d="m36.995 48.292a12.271 12.271 0 1 1 12.271-12.271 12.284 12.284 0 0 1 -12.271 12.271zm0-22.542a10.271 10.271 0 1 0 10.271 10.271 10.282 10.282 0 0 0 -10.271-10.271z"/><path d="m46.09 43.681a1 1 0 0 1 -.807-.408 10.209 10.209 0 0 0 -8.293-4.2 10.345 10.345 0 0 0 -8.293 4.2 1 1 0 0 1 -1.611-1.185 12.352 12.352 0 0 1 9.9-5.018 12.19 12.19 0 0 1 9.914 5.018 1 1 0 0 1 -.8 1.593z"/><path d="m36.99 39.07a4.586 4.586 0 1 1 4.586-4.586 4.592 4.592 0 0 1 -4.586 4.586zm0-7.172a2.586 2.586 0 1 0 2.586 2.586 2.589 2.589 0 0 0 -2.586-2.584z"/></svg>